<?xml version="1.0" encoding="UTF-8"?>
<svg version="1.1" xmlns="http://www.w3.org/2000/svg" width="464" height="464">
<path d="M0 0 C2.54759743 -0.003222 5.09519468 -0.00658674 7.64279175 -0.01008606 C12.96303815 -0.01604375 18.28326753 -0.01797281 23.60351562 -0.01733398 C29.6905359 -0.01673489 35.77746709 -0.0272675 41.86446488 -0.04307765 C47.79218204 -0.05790659 53.71987295 -0.06131728 59.64760971 -0.06072426 C62.13582599 -0.0618901 64.62404322 -0.06623153 67.11224747 -0.07405663 C107.38949061 -0.18887335 144.6070772 4.0600533 175.0546875 33.16796875 C197.52750782 57.27068593 204.83305322 87.79534408 204.71484375 120.01953125 C204.71297471 121.52981519 204.71155311 123.04009975 204.71055603 124.55038452 C204.70676908 128.49255091 204.69697222 132.43467945 204.68585205 136.37683105 C204.67555497 140.41267383 204.67104077 144.44852283 204.66601562 148.484375 C204.65534587 156.37892346 204.63831636 164.27344138 204.6171875 172.16796875 C205.21874664 172.1649324 205.82030579 172.16189606 206.44009399 172.1587677 C207.63691299 172.1552253 207.63691299 172.1552253 208.85791016 172.15161133 C209.6450943 172.14857498 210.43227844 172.14553864 211.24331665 172.14241028 C240.26358967 172.45485938 269.14769358 183.16939084 290.00390625 203.4921875 C311.00984391 225.00050931 318.78307034 254.4936589 318.85742188 283.79125977 C318.86703322 286.06890747 318.89808049 288.34561362 318.9296875 290.62304688 C319.14526379 320.4847071 309.53578706 349.10234725 288.5546875 370.73046875 C265.7030172 393.36266724 235.2847918 401.26385815 203.89457512 401.33663368 C201.40681316 401.34389661 198.91923761 401.35963557 196.43153381 401.37797546 C189.36364361 401.42997585 182.29586045 401.47831373 175.2277832 401.49389648 C170.88589533 401.50408962 166.54448761 401.53369101 162.20279121 401.57521629 C160.56652045 401.58736737 158.93018143 401.59267731 157.29386711 401.59041786 C137.63296481 401.56995526 120.72766188 405.60644775 105.94140625 419.51171875 C101.5530328 424.52700269 98.55902768 430.22048945 95.6171875 436.16796875 C95.25753906 436.88855469 94.89789063 437.60914063 94.52734375 438.3515625 C91.84126773 444.56561897 91.41225989 451.50806828 90.6171875 458.16796875 C60.10724065 459.3364348 33.3830824 447.5351457 10.9921875 427.41796875 C0.63138009 417.80532263 -6.83514282 406.61734966 -13.3828125 394.16796875 C-13.85460937 393.30171875 -14.32640625 392.43546875 -14.8125 391.54296875 C-17.78869136 385.62755736 -19.50456758 379.49505204 -21.1328125 373.10546875 C-21.34381592 372.27837402 -21.55481934 371.4512793 -21.7722168 370.59912109 C-24.56149752 359.03682572 -24.5454695 347.48417527 -24.55078125 335.65625 C-24.55400278 333.95769728 -24.5573675 332.25914482 -24.56086731 330.56059265 C-24.56682848 327.01117308 -24.56871037 323.46177774 -24.56811523 319.91235352 C-24.5680139 315.40538009 -24.58165039 310.8985652 -24.59888744 306.39162922 C-24.61010843 302.88505872 -24.61203136 299.3785253 -24.61150551 295.87193871 C-24.61267108 294.21246992 -24.61701091 292.5529997 -24.62483788 290.89354897 C-24.68296429 277.29558186 -23.90121052 264.05956066 -20.0703125 250.91796875 C-19.88275391 250.21929687 -19.69519531 249.520625 -19.50195312 248.80078125 C-17.75936849 242.63729863 -15.13187133 236.94146244 -12.3828125 231.16796875 C-13.63433105 231.10851074 -13.63433105 231.10851074 -14.91113281 231.04785156 C-53.31160169 229.13575119 -85.88344564 222.50065135 -113.6328125 193.98046875 C-132.4777173 172.53098361 -138.84265852 143.2796232 -138.6953125 115.48046875 C-138.69158127 114.35470932 -138.69158127 114.35470932 -138.68777466 113.20620728 C-138.57231731 90.67463172 -135.04195913 67.42369303 -122.3828125 48.16796875 C-121.52623047 46.84345703 -121.52623047 46.84345703 -120.65234375 45.4921875 C-105.86820465 23.94087545 -83.65351917 10.03522944 -58.3828125 4.16796875 C-57.70863281 4.01102539 -57.03445312 3.85408203 -56.33984375 3.69238281 C-37.80323844 -0.47566432 -18.89631368 0.00566622 0 0 Z M-67.1328125 71.54296875 C-67.8753125 72.40921875 -68.6178125 73.27546875 -69.3828125 74.16796875 C-69.87394531 74.73 -70.36507812 75.29203125 -70.87109375 75.87109375 C-82.48222491 90.04646975 -82.70649561 109.92524863 -81.19238281 127.36083984 C-79.84990969 138.61843589 -75.41033138 151.88998555 -66.625 159.58203125 C-50.90634718 170.70010276 -34.60682652 172.60806622 -15.82421875 172.609375 C-14.29978715 172.62120841 -12.77536687 172.63458656 -11.2509613 172.6493988 C-7.28458497 172.68510615 -3.31830888 172.70563259 0.64819336 172.72094727 C43.2128502 172.8893577 81.72304831 174.51838619 114.0546875 206.35546875 C117.39225307 209.83475684 120.53120416 213.46478874 123.6171875 217.16796875 C132.54467431 214.1150458 136.91617129 206.19981455 140.9921875 198.16796875 C141.32581299 197.51618652 141.65943848 196.8644043 142.00317383 196.19287109 C145.71592041 188.52310574 146.90253958 180.7892075 147.06640625 172.33203125 C147.0886879 171.50696075 147.11096954 170.68189026 147.13392639 169.83181763 C147.20185453 167.15232377 147.25472656 164.47285424 147.3046875 161.79296875 C147.32398315 160.87277954 147.34327881 159.95259033 147.36315918 159.0045166 C147.62965552 145.97098638 147.67342884 132.95077932 147.3671875 119.91796875 C147.34813858 118.86237762 147.34813858 118.86237762 147.32870483 117.78546143 C146.9846081 100.33700709 144.30538764 85.36372113 131.99609375 72.42578125 C119.17151432 60.25401293 101.99659348 57.84779784 84.94824219 57.90917969 C83.73202682 57.90567505 82.51581146 57.90217041 81.26274109 57.89855957 C77.95871647 57.89131684 74.6548548 57.89294305 71.35083294 57.89931774 C67.86785767 57.90442962 64.38489226 57.89967161 60.9019165 57.89654541 C55.05161628 57.8929188 49.20136673 57.89766841 43.35107422 57.90722656 C36.62610887 57.91808819 29.90126504 57.91459696 23.17630267 57.90357375 C17.36696686 57.894439 11.55766723 57.89324618 5.74832654 57.89845109 C2.29446507 57.90153968 -1.1593397 57.90206771 -4.61319733 57.89537811 C-37.99706453 57.14076709 -37.99706453 57.14076709 -67.1328125 71.54296875 Z M183.79833984 234.57104492 C182.27916737 237.0792378 180.92656185 239.63992403 179.63916016 242.27392578 C177.97663666 245.35511481 175.75497477 247.81659844 173.3671875 250.35546875 C172.9139209 250.84144531 172.4606543 251.32742187 171.99365234 251.828125 C149.72899554 274.99885653 120.8454563 284.39212263 89.6171875 287.16796875 C89.63023926 286.58063965 89.64329102 285.99331055 89.65673828 285.38818359 C89.83616076 271.48151758 84.10458798 258.37898452 74.6171875 248.16796875 C70.16489931 244.20184996 65.57978606 240.47636779 60.6171875 237.16796875 C54.79209097 237.56595671 50.44684366 243.26148307 46.6171875 247.16796875 C38.31056037 256.83240993 33.72858089 268.72125161 33.30078125 281.41796875 C33.25872559 282.65192383 33.21666992 283.88587891 33.17333984 285.15722656 C33.13322386 286.49412378 33.09368766 287.83103851 33.0546875 289.16796875 C33.03384094 289.84903687 33.01299438 290.53010498 32.99151611 291.23181152 C32.54910241 305.87796628 32.42599383 320.51578577 32.6171875 335.16796875 C32.62443848 336.11188477 32.63168945 337.05580078 32.63916016 338.02832031 C32.8475927 357.18291741 37.75986234 372.9277901 51.8203125 386.70703125 C53.65996082 388.37839881 53.65996082 388.37839881 56.6171875 389.16796875 C57.1740625 388.45511719 57.7309375 387.74226562 58.3046875 387.0078125 C63.0082901 381.10447342 67.66604032 375.81594501 73.6171875 371.16796875 C74.42671875 370.53375 75.23625 369.89953125 76.0703125 369.24609375 C104.36306738 347.90243656 133.28511187 344.58131995 167.71264648 344.54632568 C174.22187577 344.53746849 180.73089028 344.50121819 187.23994255 344.45415115 C189.4717836 344.44188342 191.70332925 344.44229479 193.93519592 344.44442749 C201.39155285 344.42482985 208.75654548 344.09336241 216.17553711 343.32275391 C216.90011643 343.25161566 217.62469576 343.18047741 218.37123203 343.10718346 C231.62982978 341.5850725 243.45406371 335.6842126 251.8046875 325.23046875 C262.45733443 309.90156146 263.77265184 288.98053676 261.0859375 270.93359375 C258.43929083 257.75789621 253.241472 246.86438085 242.2265625 238.76953125 C230.12820388 231.34389198 194.20455182 220.95615315 183.79833984 234.57104492 Z " fill="#10A6E9" transform="translate(142.3828125,2.83203125)"/>
</svg>
